<svg xmlns="http://www.w3.org/2000/svg" width="13.636" height="13.635" viewBox="0 0 13.636 13.635"><defs><style>.a{fill:#034bb7}</style></defs><g><g><path d="M8.32,6.834l5.1-5.1a.747.747,0,0,0,0-1.055L12.972.234a.748.748,0,0,0-1.055,0l-5.1,5.1L1.72.234a.747.747,0,0,0-1.055,0L.218.68a.746.746,0,0,0,0,1.055l5.1,5.1-5.1,5.1a.748.748,0,0,0,0,1.055l.447.447a.747.747,0,0,0,1.055,0l5.1-5.1,5.1,5.1a.74.74,0,0,0,.527.218h0a.74.74,0,0,0,.527-.218l.447-.447a.748.748,0,0,0,0-1.055Z" class="a" transform="translate(0 -0.016) translate(0 0.016) translate(0 -0.016)"/></g></g></svg>